<svg xmlns="http://www.w3.org/2000/svg" viewBox="0 0 278 92" width="278" height="92">
  <defs>
    <linearGradient id="cb-body" x1="0%" y1="0%" x2="100%" y2="100%">
      <stop offset="0%" stop-color="#ff4d4d"/>
      <stop offset="100%" stop-color="#991b1b"/>
    </linearGradient>
  </defs>
  <g>
    <path d="M50,12 C30,12 16,30 16,48 C16,58 18,66 22,72 C24,76 26,78 29,78 C32,78 33,75 35,73.5 C37,72 39,71.5 41,71.5 C43,71.5 45,72 46,73.5 C48,75 50,78 52,78 C55,78 56,75 58,73.5 C60,72 62,71.5 64,71.5 C66,71.5 67,72 68,73.5 C70,75 72,78 75,78 C78,78 80,74 82,66 C84,58 84,48 84,48 C84,30 70,12 50,12 Z" fill="url(#cb-body)"/>
    <path d="M20,40 C7,36 3,43 7,51 C11,59 20,55 24,47 C26,42 24,40 20,40Z" fill="url(#cb-body)"/>
    <path d="M80,40 C93,36 97,43 93,51 C89,59 80,55 76,47 C74,42 76,40 80,40Z" fill="url(#cb-body)"/>
    <path d="M38,17 Q30,8 26,10" fill="none" stroke="#ff4d4d" stroke-width="2.5" stroke-linecap="round"/>
    <path d="M62,17 Q70,8 74,10" fill="none" stroke="#ff4d4d" stroke-width="2.5" stroke-linecap="round"/>
    <circle cx="38" cy="36" r="5" fill="#050810"/><circle cx="39" cy="35" r="2" fill="#00e5cc"/>
    <circle cx="62" cy="36" r="5" fill="#050810"/><circle cx="63" cy="35" r="2" fill="#00e5cc"/>
  </g>
  <g transform="translate(112.00 21.00) scale(0.6039)" fill="#0f172a">
    <path d="M19.66 63.36L19.66 63.36Q11.59 63.36 6.77 58.28Q1.94 53.21 1.94 45.00L1.94 45.00Q1.94 36.86 6.77 31.75Q11.59 26.64 19.66 26.64L19.66 26.64Q25.78 26.64 30.10 29.59Q34.42 32.54 36.07 37.30L36.07 37.30L27.50 42.26Q26.14 35.21 20.02 35.21L20.02 35.21Q16.56 35.21 14.51 37.73Q12.46 40.25 12.46 45.00Q12.46 49.75 14.51 52.27Q16.56 54.79 20.02 54.79L20.02 54.79Q26.14 54.79 27.50 47.74L27.50 47.74L36.07 52.70Q34.42 57.46 30.10 60.41Q25.78 63.36 19.66 63.36ZM51.19 14.40L51.19 62.64L40.90 62.64L40.90 14.40L51.19 14.40ZM66.10 63.43L66.10 63.43Q61.85 63.43 59.33 61.20Q56.81 58.97 56.81 54.79L56.81 54.79Q56.81 50.90 59.26 48.38Q61.70 45.86 66.89 44.06L66.89 44.06L77.69 40.03Q77.40 37.73 76.14 36.58Q74.88 35.42 72.07 35.42L72.07 35.42Q68.83 35.42 65.88 37.08Q62.93 38.74 61.06 41.47L61.06 41.47L55.87 33.98Q62.64 26.64 72.79 26.64L72.79 26.64Q79.56 26.64 83.23 30.13Q86.90 33.62 86.90 40.25L86.90 40.25L86.90 52.34Q86.90 54.43 88.78 54.43L88.78 54.43L90.86 54.43L90.86 62.64L84.82 62.64Q81.65 62.64 79.60 61.02Q77.54 59.40 77.54 55.87L77.54 55.87L77.54 53.50Q76.54 57.67 73.76 60.55Q70.99 63.43 66.10 63.43ZM66.31 53.28L66.31 53.28Q66.31 55.87 69.91 55.87L69.91 55.87Q73.58 55.87 75.56 54.11Q77.54 52.34 77.54 49.10L77.54 49.10L77.54 46.66L70.06 49.75Q66.31 51.26 66.31 53.28ZM116.57 46.94L112.68 62.64L99.86 62.64L91.01 27.36L102.31 27.36L105.05 45.00L106.42 56.09L108.58 45.07L112.82 27.36L124.49 27.36L128.95 45.07L131.04 56.09L132.41 45.00L135.07 27.36L146.38 27.36L137.52 62.64L124.70 62.64L120.89 46.94L118.73 34.20L116.57 46.94ZM160.78 52.70L160.78 62.64L150.48 62.64L150.48 14.40L160.78 14.40L160.78 37.44Q162.72 26.64 172.01 26.64L172.01 26.64Q178.27 26.64 181.94 31.50Q185.62 36.36 185.62 45.00L185.62 45.00Q185.62 53.71 181.87 58.57Q178.13 63.43 171.58 63.43L171.58 63.43Q166.54 63.43 164.05 60.52Q161.57 57.60 160.78 52.70L160.78 52.70ZM160.78 43.13L160.78 46.94Q160.78 55.37 167.47 55.37L167.47 55.37Q171.07 55.37 173.09 52.67Q175.10 49.97 175.10 45.00Q175.10 40.03 173.05 37.33Q171 34.63 167.47 34.63L167.47 34.63Q160.78 34.63 160.78 43.13L160.78 43.13ZM207.58 63.36L207.58 63.36Q199.58 63.36 194.76 58.25Q189.94 53.14 189.94 45.00Q189.94 36.86 194.76 31.75Q199.58 26.64 207.58 26.64L207.58 26.64Q215.78 26.64 220.68 31.75Q225.58 36.86 225.58 45.00L225.58 45.00Q225.58 53.21 220.68 58.28Q215.78 63.36 207.58 63.36ZM207.72 55.01L207.72 55.01Q215.14 55.01 215.14 45.00Q215.14 34.99 207.72 34.99L207.72 34.99Q200.38 34.99 200.38 45.00Q200.38 55.01 207.72 55.01ZM247.82 63.36L247.82 63.36Q239.83 63.36 235.01 58.25Q230.18 53.14 230.18 45.00Q230.18 36.86 235.01 31.75Q239.83 26.64 247.82 26.64L247.82 26.64Q256.03 26.64 260.93 31.75Q265.82 36.86 265.82 45.00L265.82 45.00Q265.82 53.21 260.93 58.28Q256.03 63.36 247.82 63.36ZM247.97 55.01L247.97 55.01Q255.38 55.01 255.38 45.00Q255.38 34.99 247.97 34.99L247.97 34.99Q240.62 34.99 240.62 45.00Q240.62 55.01 247.97 55.01Z"/>
  </g>
</svg>
