<svg xmlns="http://www.w3.org/2000/svg" viewBox="0 0 100 92" width="100" height="92" aria-hidden="true">
  <defs>
    <radialGradient id="boo-logo-hl" cx="38%" cy="28%" r="65%">
      <stop offset="0%" stop-color="#ffffff" stop-opacity="0.13"/>
      <stop offset="100%" stop-color="#ffffff" stop-opacity="0"/>
    </radialGradient>
  </defs>
  <!-- Antennae -->
  <path d="M38,20 C36,12 30,5 24,3" fill="none" stroke="#E94560" stroke-width="1.8" stroke-linecap="round" stroke-opacity="0.6"/>
  <path d="M62,20 C64,12 70,5 76,3" fill="none" stroke="#E94560" stroke-width="1.8" stroke-linecap="round" stroke-opacity="0.6"/>
  <!-- Arm bumps -->
  <circle cx="10" cy="48" r="5.5" fill="#E94560" fill-opacity="0.75"/>
  <circle cx="90" cy="48" r="5.5" fill="#E94560" fill-opacity="0.75"/>
  <!-- Ghost body -->
  <path d="M50,16 C30,16 12,28 12,46 C12,56 14,64 20,72 C26,80 34,72 42,70 C46,80 54,80 58,70 C64,72 74,80 80,72 C86,64 88,56 88,46 C88,28 70,16 50,16 Z" fill="#E94560" stroke="none"/>
  <!-- Highlight overlay -->
  <path d="M50,16 C30,16 12,28 12,46 C12,56 14,64 20,72 C26,80 34,72 42,70 C46,80 54,80 58,70 C64,72 74,80 80,72 C86,64 88,56 88,46 C88,28 70,16 50,16 Z" fill="url(#boo-logo-hl)" stroke="none"/>
  <!-- Body shine -->
  <ellipse cx="36" cy="28" rx="10" ry="7" fill="rgba(255,255,255,0.07)" transform="rotate(-15,36,28)"/>
  <!-- Bottom shadow -->
  <ellipse cx="50" cy="76" rx="18" ry="3.5" fill="rgba(0,0,0,0.06)"/>
  <!-- Eyes: dark ovals with mint/cyan pupils -->
  <ellipse cx="38" cy="42" rx="8" ry="9.5" fill="rgba(10,14,26,0.92)"/>
  <circle cx="38" cy="42.5" r="3.2" fill="#34D399"/>
  <circle cx="36.5" cy="39.5" r="1.3" fill="rgba(255,255,255,0.55)"/>
  <ellipse cx="62" cy="42" rx="8" ry="9.5" fill="rgba(10,14,26,0.92)"/>
  <circle cx="62" cy="42.5" r="3.2" fill="#34D399"/>
  <circle cx="60.5" cy="39.5" r="1.3" fill="rgba(255,255,255,0.55)"/>
</svg>
